<?xml version="1.0" encoding="UTF-8" standalone="no"?>
<svg
   xmlns="http://www.w3.org/2000/svg"
   version="1.1"
   width="100"
   height="100"
   viewBox="0 20 130 130"
   id="svg2"
   xml:space="preserve">
  <g transform="translate(65, 80) scale(1.5, -1.5) translate(-65, -65)">
    <path
       d="m 42.89209,63.251898 c -2.671999,-4.17732 -4.228596,-9.104219 -4.228596,-14.393446 0,-14.87655 12.28852,-27.015509 27.378915,-27.015509 15.057926,0 27.375096,12.138959 27.375096,27.015509 0,5.224046 -1.516488,10.083848 -4.127369,14.228577 l -2.956579,5.511609 18.537823,32.927782 -40.546002,0 L 42.89209,63.251898 z"
       style="fill:#ffffff;fill-opacity:1;fill-rule:nonzero;stroke:none" />
    <path
       d="m 81.790835,49.515819 c 0,-9.213492 -7.444927,-16.680523 -16.622163,-16.680523 -9.177237,0 -16.622163,7.467031 -16.622163,16.680523 0,9.213493 7.444926,16.686276 16.622163,16.686276 9.177236,0 16.622163,-7.472783 16.622163,-16.686276"
       style="fill:#00ae9d;fill-opacity:1;fill-rule:nonzero;stroke:none" />
    <path
       d="m 79.535774,74.490403 -11.186488,19.460292 22.376797,0 L 79.535774,74.490403 z M 65.169245,30.067797 c -10.701365,0 -19.374379,8.707384 -19.374379,19.448789 0,3.590693 0.972157,6.955171 2.660539,9.851881 l 16.71384,29.049531 16.711929,-29.049531 c 1.692203,-2.89671 2.666269,-6.261188 2.666269,-9.851881 0,-10.741405 -8.680653,-19.448789 -19.378198,-19.448789 m 17.544661,38.901413 17.550394,30.508434 -35.095055,0 -21.439019,-37.279566 c -2.186874,-3.715302 -3.445522,-8.05174 -3.445522,-12.681492 0,-13.791482 11.14065,-24.977651 24.884541,-24.977651 13.74389,0 24.88263,11.186169 24.88263,24.977651 0,4.629752 -1.251007,8.96619 -3.441702,12.681492 l -3.896267,6.771132 z"
       style="fill:#00ae9d;fill-opacity:1;fill-rule:nonzero;stroke:none" />
  </g>
</svg>
